General
Unique ID                                : 180051315629373802714605563626779561566 (0x87749F3D5683F29F8024C139AA3FCE5E)
Complete name                            : D:The.Big.Bang.Theory.S06.1080p.WEB-DL.Rus.Eng.HDCLUBThe.Big.Bang.Theory.S06E16.1080p.WEB-DL.Rus.Eng.HDCLUB.mkv
Format                                   : Matroska
Format version                           : Version 2
File size                                : 823 MiB
Duration                                 : 20mn 52s
Overall bit rate                         : 5 512 Kbps
Encoded date                             : UTC 2013-02-18 14:28:07
Writing application                      : mkvmerge v5.8.0 ('No Sleep / Pillow') built on Sep  2 2012 15:37:04
Writing library                          : libebml v1.2.3 + libmatroska v1.3.0

Video
ID                                       : 1
Format                                   : AVC
Format/Info                              : Advanced Video Codec
Format profile                           : High@L4.0
Format settings, CABAC                   : Yes
Format settings, ReFrames                : 4 frames
Codec ID                                 : V_MPEG4/ISO/AVC
Duration                                 : 20mn 52s
Bit rate                                 : 4 826 Kbps
Width                                    : 1 920 pixels
Height                                   : 1 080 pixels
Display aspect ratio                     : 16:9
Frame rate mode                          : Constant
Frame rate                               : 23.976 fps
Color space                              : YUV
Chroma subsampling                       : 4:2:0
Bit depth                                : 8 bits
Scan type                                : Progressive
Bits/(Pixel*Frame)                       : 0.097
Stream size                              : 721 MiB (88%)
Title                                    : Video
Language                                 : English
Default                                  : Yes
Forced                                   : Yes
Color primaries                          : BT.709
Transfer characteristics                 : BT.709
Matrix coefficients                      : BT.709

Audio #1
ID                                       : 2
Format                                   : AC-3
Format/Info                              : Audio Coding 3
Mode extension                           : CM (complete main)
Format settings, Endianness              : Big
Codec ID                                 : A_AC3
Duration                                 : 20mn 52s
Bit rate mode                            : Constant
Bit rate                                 : 192 Kbps
Channel(s)                               : 2 channels
Channel positions                        : Front: L R
Sampling rate                            : 48.0 KHz
Bit depth                                : 16 bits
Compression mode                         : Lossy
Stream size                              : 28.7 MiB (3%)
Title                                    : Russian
Language                                 : Russian
Default                                  : Yes
Forced                                   : Yes

Audio #2
ID                                       : 3
Format                                   : AC-3
Format/Info                              : Audio Coding 3
Mode extension                           : CM (complete main)
Format settings, Endianness              : Big
Codec ID                                 : A_AC3
Duration                                 : 20mn 52s
Bit rate mode                            : Constant
Bit rate                                 : 384 Kbps
Channel(s)                               : 6 channels
Channel positions                        : Front: L C R, Side: L R, LFE
Sampling rate                            : 48.0 KHz
Bit depth                                : 16 bits
Compression mode                         : Lossy
Stream size                              : 57.4 MiB (7%)
Title                                    : English 5.1
Language                                 : English
Default                                  : No
Forced                                   : No

